<?xml version="1.0" standalone="no"?>
<!DOCTYPE svg PUBLIC "-//W3C//DTD SVG 20010904//EN"
 "http://www.w3.org/TR/2001/REC-SVG-20010904/DTD/svg10.dtd">
<svg version="1.0" xmlns="http://www.w3.org/2000/svg"
 width="300.000000pt" height="300.000000pt" viewBox="0 0 300.000000 300.000000"
 preserveAspectRatio="xMidYMid meet">
<metadata>
Created by potrace 1.14, written by Peter Selinger 2001-2017
</metadata>
<g transform="translate(0.000000,300.000000) scale(0.100000,-0.100000)"
fill="#000000" stroke="none">
<path d="M1800 2647 c-3 -3 -23 -8 -45 -11 -61 -10 -154 -36 -199 -55 -23 -10
-66 -29 -96 -42 -30 -13 -72 -34 -92 -46 -21 -13 -41 -23 -45 -23 -5 0 -20
-11 -35 -25 -15 -14 -31 -25 -36 -25 -4 0 -21 -13 -37 -30 -16 -16 -35 -30
-42 -30 -7 0 -13 -5 -13 -11 0 -5 -13 -27 -30 -47 -68 -86 -72 -155 -15 -258
20 -36 50 -80 66 -98 30 -35 155 -116 178 -116 8 0 57 -14 110 -31 424 -137
485 -164 571 -249 64 -63 78 -99 73 -197 -4 -88 -36 -175 -99 -268 -90 -134
-196 -235 -358 -340 -152 -99 -405 -205 -490 -205 -12 0 -26 -3 -30 -7 -11
-11 -173 -16 -276 -9 -112 8 -210 70 -249 157 -27 60 -26 152 2 236 41 119
162 257 316 359 69 47 199 112 274 138 11 3 15 11 11 18 -6 10 -4 10 8 0 14
-11 21 -11 40 -1 13 8 30 14 38 14 28 3 75 16 100 29 22 12 113 24 225 30 22
2 39 7 38 13 -1 6 11 9 27 8 17 -1 31 3 34 11 5 13 -6 18 -26 15 -5 0 -8 4 -8
10 0 6 -12 10 -27 9 -16 -1 -31 -1 -35 0 -5 1 -28 2 -53 3 -25 0 -45 5 -45 10
0 5 16 7 35 4 20 -3 33 -2 30 3 -3 5 3 11 12 14 10 2 -12 4 -50 3 -37 -1 -67
1 -67 6 0 4 -7 7 -16 7 -8 0 -13 -4 -10 -9 3 -5 -7 -8 -23 -7 -16 0 -27 4 -24
9 2 4 8 5 13 2 5 -3 12 0 16 6 5 9 0 10 -14 7 -12 -4 -24 -2 -27 3 -3 4 -16 5
-28 0 -12 -4 -28 -6 -35 -4 -7 3 -20 1 -30 -3 -9 -4 -19 -8 -22 -8 -3 -1 -14
-7 -25 -14 -18 -12 -17 -13 12 -8 21 3 33 1 36 -9 6 -14 31 -15 44 0 4 4 -2 5
-14 2 -13 -3 -23 -2 -23 3 0 15 49 18 55 3 8 -22 -5 -35 -26 -30 -11 3 -19 2
-19 -3 0 -4 -12 -7 -27 -7 -16 0 -41 -4 -58 -8 -41 -10 -59 -13 -68 -14 -5 -1
-5 -6 -1 -13 5 -7 3 -8 -5 -4 -7 5 -26 2 -42 -4 -23 -10 -33 -10 -42 -1 -6 6
-18 11 -26 10 -9 0 -6 -4 8 -10 19 -8 22 -12 12 -22 -9 -9 -14 -9 -21 3 -7 10
-10 11 -10 3 0 -7 -6 -13 -13 -13 -7 0 -18 -5 -25 -12 -6 -6 -22 -13 -33 -15
-64 -10 -271 -166 -255 -192 4 -6 1 -9 -7 -5 -8 3 -18 0 -22 -5 -3 -6 -11 -9
-16 -5 -5 3 -8 0 -7 -7 2 -7 -3 -13 -9 -14 -7 0 -13 -4 -12 -9 0 -5 -6 -13
-15 -18 -9 -5 -14 -13 -11 -17 2 -5 -5 -11 -17 -15 -18 -4 -20 -8 -10 -18 18
-18 15 -30 -7 -23 -11 3 -22 1 -26 -5 -3 -5 -1 -10 5 -10 6 0 8 -5 5 -10 -4
-6 -11 -8 -16 -5 -5 3 -6 -2 -2 -11 4 -11 2 -15 -4 -11 -12 8 -26 -20 -17 -34
3 -5 0 -9 -6 -9 -6 0 -8 -4 -5 -10 3 -6 -1 -7 -9 -4 -11 4 -16 0 -16 -11 0
-10 4 -13 13 -9 8 5 8 3 -2 -9 -7 -9 -16 -15 -20 -13 -4 3 -13 0 -21 -6 -12
-8 -12 -9 3 -4 11 3 17 0 17 -9 0 -8 -8 -15 -17 -15 -14 0 -15 -2 -5 -9 18
-11 12 -53 -8 -58 -13 -4 -13 -3 0 7 13 10 13 11 0 7 -16 -5 -16 -9 -5 -42 5
-14 4 -16 -3 -7 -7 11 -10 9 -15 -7 -3 -12 0 -21 6 -21 8 0 7 -4 -2 -9 -9 -6
-10 -11 -2 -15 6 -4 11 -15 11 -24 0 -13 -2 -14 -9 -4 -7 11 -9 11 -14 -2 -3
-8 -2 -18 3 -21 5 -3 7 -12 4 -19 -3 -8 2 -28 11 -45 8 -17 13 -31 10 -31 -3
0 0 -10 7 -22 7 -13 12 -26 13 -30 0 -16 113 -131 152 -156 24 -15 43 -30 43
-34 0 -4 7 -4 17 -1 11 4 14 3 9 -5 -4 -7 0 -13 11 -14 10 0 24 -2 31 -2 7 -1
17 -7 21 -15 6 -8 17 -11 32 -6 19 5 21 4 9 -4 -12 -9 -10 -11 13 -13 15 -1
39 -3 55 -5 74 -9 282 -3 282 7 0 6 -5 10 -12 10 -6 0 -8 3 -5 7 4 3 17 1 30
-6 28 -15 92 3 67 19 -11 7 -11 10 -2 10 7 0 21 -5 32 -12 14 -9 24 -9 42 -1
45 23 124 55 183 74 32 12 71 28 85 37 14 9 34 23 45 30 11 7 34 21 50 32 17
11 38 20 48 20 9 0 17 5 17 11 0 5 5 7 10 4 6 -3 10 -1 10 4 0 6 6 11 13 11 7
0 18 9 25 20 7 11 17 20 23 20 7 0 19 8 28 18 9 10 39 34 66 54 28 20 57 45
67 55 9 10 41 43 72 73 31 30 56 58 56 62 0 3 6 13 13 20 28 28 98 155 127
230 82 213 -7 470 -215 619 -77 55 -198 109 -320 145 -130 38 -164 48 -212 65
-29 10 -53 17 -53 14 0 -6 -91 29 -157 61 -31 15 -53 32 -53 41 0 29 48 99 91
134 23 19 53 44 65 56 22 22 52 41 143 89 24 13 49 28 55 32 21 16 151 59 217
72 63 12 133 8 143 -9 15 -24 -90 -156 -204 -257 -80 -70 -88 -93 -59 -161 23
-54 46 -75 74 -66 29 9 189 164 276 268 46 54 67 98 73 148 5 40 -29 152 -54
177 -10 10 -17 20 -14 22 2 3 -15 15 -38 28 -31 17 -63 25 -118 28 -41 2 -77
2 -80 -1z m-396 -1053 c9 -24 7 -34 -6 -34 -6 0 -8 3 -5 6 3 4 2 15 -4 25 -6
11 -6 19 0 19 5 0 12 -7 15 -16z m56 -8 c0 -11 -19 -15 -25 -6 -3 5 1 10 9 10
9 0 16 -2 16 -4z m30 -6 c0 -5 -4 -10 -10 -10 -5 0 -10 5 -10 10 0 6 5 10 10
10 6 0 10 -4 10 -10z m30 6 c0 -3 -4 -8 -10 -11 -5 -3 -10 -1 -10 4 0 6 5 11
10 11 6 0 10 -2 10 -4z"/>
<path d="M1195 1585 c-40 -14 -40 -14 -5 -9 19 4 39 10 45 15 11 11 10 11 -40
-6z"/>
<path d="M1249 1567 c5 -5 17 -5 28 2 16 9 15 10 -9 9 -16 -2 -24 -6 -19 -11z"/>
<path d="M1210 1559 c0 -5 5 -7 10 -4 6 3 10 8 10 11 0 2 -4 4 -10 4 -5 0 -10
-5 -10 -11z"/>
<path d="M1135 1545 c-18 -8 -22 -13 -10 -11 28 4 73 25 55 25 -8 0 -28 -6
-45 -14z"/>
<path d="M1053 1540 c-35 -14 -27 -20 10 -8 17 6 34 13 36 14 8 7 -24 3 -46
-6z"/>
<path d="M996 1508 c-7 -22 -3 -47 6 -42 5 3 6 9 3 14 -3 5 4 12 16 15 17 6
19 9 8 16 -19 12 -29 11 -33 -3z"/>
<path d="M950 1480 c-8 -16 -8 -18 4 -14 17 6 30 34 16 34 -5 0 -14 -9 -20
-20z"/>
<path d="M685 1300 c-3 -6 1 -7 9 -4 18 7 21 14 7 14 -6 0 -13 -4 -16 -10z"/>
</g>
</svg>
